<svg width="52" height="52" viewBox="0 0 52 52" fill="none" xmlns="http://www.w3.org/2000/svg">
<path d="M26 0C11.648 0 0 11.648 0 26C0 40.352 11.648 52 26 52C40.3 52 52 40.352 52 26C52 11.648 40.3 0 26 0ZM43.16 11.96C46.28 15.756 48.1 20.54 48.204 25.792C47.476 25.636 40.144 24.18 32.76 25.064C32.604 24.7 32.448 24.284 32.292 23.92C31.824 22.828 31.356 21.736 30.836 20.696C38.948 17.42 42.692 12.584 43.16 11.96ZM26 3.848C31.616 3.848 36.816 5.98 40.716 9.412C40.3 9.984 36.972 14.456 29.068 17.42C25.428 10.712 21.372 5.252 20.8 4.42C22.464 4.056 24.18 3.848 26 3.848ZM16.536 5.928C17.108 6.708 21.06 12.22 24.752 18.772C14.352 21.528 5.2 21.476 4.212 21.476C5.72 14.56 10.348 8.84 16.536 5.928ZM3.796 26.052C3.796 25.844 3.796 25.584 3.796 25.376C4.732 25.428 15.548 25.532 26.624 22.204C27.248 23.452 27.872 24.7 28.444 26C28.184 26.104 27.872 26.156 27.56 26.26C16.12 29.952 10.036 40.04 9.516 40.872C5.928 36.92 3.796 31.72 3.796 26.052ZM26 48.204C20.852 48.204 16.12 46.436 12.376 43.524C12.792 42.692 17.264 34.008 29.796 29.64C29.848 29.588 29.9 29.588 29.952 29.588C33.072 37.7 34.372 44.46 34.684 46.436C32.032 47.58 29.068 48.204 26 48.204ZM38.376 44.408C38.168 43.056 36.972 36.556 34.06 28.6C41.028 27.508 47.112 29.328 47.892 29.536C46.904 35.724 43.368 41.08 38.376 44.408Z" fill="black"/>
</svg>
