<svg width="35" height="52" viewBox="0 0 35 52" fill="none" xmlns="http://www.w3.org/2000/svg">
<path d="M17.5 26C17.5 21.3057 21.3055 17.5 26 17.5C30.6943 17.5 34.5 21.3057 34.5 26C34.5 30.6945 30.6943 34.5 26 34.5C21.3055 34.5 17.5 30.6945 17.5 26Z" fill="white" stroke="#1A1D1C"/>
<path d="M0.5 43.5C0.5 39.0818 4.08172 35.5 8.5 35.5H16.5V43.5C16.5 47.9183 12.9183 51.5 8.5 51.5C4.08172 51.5 0.5 47.9183 0.5 43.5Z" fill="white" stroke="#1A1D1C"/>
<path d="M26 16.5H17.5V0.5H26C30.7218 0.5 34.5 4.10828 34.5 8.50002C34.5 12.8918 30.7218 16.5 26 16.5Z" fill="white" stroke="#1A1D1C"/>
<path d="M8.5 16.5C4.08172 16.5 0.5 12.9183 0.5 8.50002C0.5 4.08173 4.08172 0.5 8.5 0.5H16.5V16.5H8.5Z" fill="white" stroke="#1A1D1C"/>
<path d="M8.5 34.5C4.10826 34.5 0.5 30.7218 0.5 26C0.5 21.2784 4.10826 17.5 8.5 17.5H16.5V34.5H8.5Z" fill="white" stroke="#1A1D1C"/>
</svg>
