<svg width="52" height="51" viewBox="0 0 52 51" fill="none" xmlns="http://www.w3.org/2000/svg">
<path fill-rule="evenodd" clip-rule="evenodd" d="M25.9205 0C11.6086 0 0 11.7028 0 26.1309C0 37.6734 7.47401 47.4524 17.6514 50.9793C18.9235 51.1396 19.4006 50.338 19.4006 49.6968C19.4006 49.0555 19.4006 47.4524 19.4006 45.208C12.2446 46.8111 10.6544 41.6812 10.6544 41.6812C9.54128 38.6352 7.79205 37.8337 7.79205 37.8337C5.40673 36.2305 7.95107 36.2305 7.95107 36.2305C10.4954 36.3909 11.9266 38.9558 11.9266 38.9558C14.3119 42.9637 17.9694 41.8415 19.4006 41.2002C19.5596 39.4368 20.3547 38.3146 20.9908 37.6734C15.2661 37.0321 9.22324 34.7877 9.22324 24.6881C9.22324 21.8025 10.1774 19.5581 11.9266 17.6343C11.7676 17.1534 10.8135 14.4281 12.2446 10.9012C12.2446 10.9012 14.4709 10.26 19.4006 13.6265C21.4679 12.9853 23.6942 12.825 25.9205 12.825C28.1468 12.825 30.3731 13.1456 32.4404 13.6265C37.37 10.26 39.5963 10.9012 39.5963 10.9012C41.0275 14.4281 40.0734 17.1534 39.9144 17.7946C41.5046 19.5581 42.6177 21.9628 42.6177 24.8484C42.6177 34.948 36.5749 37.0321 30.8502 37.6734C31.8043 38.4749 32.5994 40.078 32.5994 42.4827C32.5994 46.0096 32.5994 48.7349 32.5994 49.6968C32.5994 50.338 33.0765 51.1396 34.3486 50.9793C44.685 47.4524 52 37.6734 52 26.1309C51.841 11.7028 40.2324 0 25.9205 0Z" fill="white"/>
</svg>
