<svg width="51" height="51" viewBox="0 0 51 51" fill="none" xmlns="http://www.w3.org/2000/svg">
<path d="M25.5 4.60843C32.259 4.60843 33.1807 4.60843 35.9458 4.60843C38.4036 4.60843 39.6325 5.22289 40.5542 5.53012C41.7831 6.14458 42.7048 6.45181 43.6265 7.3735C44.5482 8.29518 45.1627 9.21687 45.4699 10.4458C45.7771 11.3675 46.0843 12.5964 46.3916 15.0542C46.3916 17.8193 46.3916 18.4337 46.3916 25.5C46.3916 32.5663 46.3916 33.1807 46.3916 35.9458C46.3916 38.4036 45.7771 39.6325 45.4699 40.5542C44.8554 41.7831 44.5482 42.7048 43.6265 43.6265C42.7048 44.5482 41.7831 45.1627 40.5542 45.4699C39.6325 45.7771 38.4036 46.0843 35.9458 46.3916C33.1807 46.3916 32.5663 46.3916 25.5 46.3916C18.4337 46.3916 17.8193 46.3916 15.0542 46.3916C12.5964 46.3916 11.3675 45.7771 10.4458 45.4699C9.21687 44.8554 8.29518 44.5482 7.3735 43.6265C6.45181 42.7048 5.83735 41.7831 5.53012 40.5542C5.22289 39.6325 4.91566 38.4036 4.60843 35.9458C4.60843 33.1807 4.60843 32.5663 4.60843 25.5C4.60843 18.4337 4.60843 17.8193 4.60843 15.0542C4.60843 12.5964 5.22289 11.3675 5.53012 10.4458C6.14458 9.21687 6.45181 8.29518 7.3735 7.3735C8.29518 6.45181 9.21687 5.83735 10.4458 5.53012C11.3675 5.22289 12.5964 4.91566 15.0542 4.60843C17.8193 4.60843 18.741 4.60843 25.5 4.60843ZM25.5 0C18.4337 0 17.8193 0 15.0542 0C12.2892 0 10.4458 0.61446 8.90964 1.22892C7.3735 1.84338 5.83735 2.76506 4.30121 4.30121C2.76506 5.83735 2.1506 7.06627 1.22892 8.90964C0.61446 10.4458 0.307229 12.2892 0 15.0542C0 17.8193 0 18.741 0 25.5C0 32.5663 0 33.1807 0 35.9458C0 38.7108 0.61446 40.5542 1.22892 42.0904C1.84338 43.6265 2.76506 45.1627 4.30121 46.6988C5.83735 48.2349 7.06627 48.8494 8.90964 49.7711C10.4458 50.3856 12.2892 50.6928 15.0542 51C17.8193 51 18.741 51 25.5 51C32.259 51 33.1807 51 35.9458 51C38.7108 51 40.5542 50.3856 42.0904 49.7711C43.6265 49.1566 45.1627 48.2349 46.6988 46.6988C48.2349 45.1627 48.8494 43.9337 49.7711 42.0904C50.3856 40.5542 50.6928 38.7108 51 35.9458C51 33.1807 51 32.259 51 25.5C51 18.741 51 17.8193 51 15.0542C51 12.2892 50.3856 10.4458 49.7711 8.90964C49.1566 7.3735 48.2349 5.83735 46.6988 4.30121C45.1627 2.76506 43.9337 2.1506 42.0904 1.22892C40.5542 0.61446 38.7108 0.307229 35.9458 0C33.1807 0 32.5663 0 25.5 0Z" fill="white"/>
<path d="M25.5 12.2892C18.1265 12.2892 12.2892 18.1265 12.2892 25.5C12.2892 32.8735 18.1265 38.7108 25.5 38.7108C32.8735 38.7108 38.7108 32.8735 38.7108 25.5C38.7108 18.1265 32.8735 12.2892 25.5 12.2892ZM25.5 34.1024C20.8916 34.1024 16.8976 30.4157 16.8976 25.5C16.8976 20.8916 20.5843 16.8976 25.5 16.8976C30.1084 16.8976 34.1024 20.5843 34.1024 25.5C34.1024 30.1084 30.1084 34.1024 25.5 34.1024Z" fill="white"/>
<path d="M39.0181 15.0542C40.7149 15.0542 42.0904 13.6787 42.0904 11.9819C42.0904 10.2852 40.7149 8.90964 39.0181 8.90964C37.3213 8.90964 35.9458 10.2852 35.9458 11.9819C35.9458 13.6787 37.3213 15.0542 39.0181 15.0542Z" fill="white"/>
</svg>
