<svg width="52" height="51" viewBox="0 0 52 51" fill="none" xmlns="http://www.w3.org/2000/svg">
<path d="M26.1602 0C11.7721 0 0 11.7692 0 26.1538C0 36.9423 6.54006 46.0961 15.6961 50.0192C15.6961 48.0577 15.6961 46.0962 16.0231 44.1346C16.6771 41.8462 19.2931 29.75 19.2931 29.75C19.2931 29.75 18.3121 28.1154 18.3121 25.5C18.3121 21.5769 20.6012 18.6346 23.2172 18.6346C25.5062 18.6346 26.8142 20.2692 26.8142 22.5577C26.8142 24.8462 25.1792 28.4423 24.5252 31.7115C23.8712 34.3269 25.8332 36.6154 28.7762 36.6154C33.6812 36.6154 36.9513 30.4038 36.9513 22.5577C36.9513 16.6731 33.0272 12.4231 26.1602 12.4231C18.3121 12.4231 13.4071 18.3077 13.4071 24.8462C13.4071 27.1346 14.0611 28.7692 15.0421 30.0769C15.3691 30.7308 15.6961 30.7308 15.3691 31.3846C15.3691 31.7115 15.0421 33.0192 14.7151 33.3462C14.3881 34 14.0611 34.3269 13.4071 34C9.81009 32.3654 8.17506 28.4423 8.17506 23.8654C8.17506 16.3462 14.3881 7.51923 26.8142 7.51923C36.9513 7.51923 43.4913 14.7115 43.4913 22.5577C43.4913 32.6923 37.9323 40.5385 29.4302 40.5385C26.4872 40.5385 23.8712 38.9038 22.8902 37.2692C22.8902 37.2692 21.2551 43.1538 20.9281 44.4615C20.2741 46.4231 19.2932 48.3846 18.3121 50.0192C20.6012 50.6731 23.2171 51 25.8332 51C40.2213 51 51.9933 39.2308 51.9933 24.8462C52.3204 11.7692 40.5483 0 26.1602 0Z" fill="white"/>
</svg>
