<svg width="52" height="52" viewBox="0 0 52 52" fill="none" xmlns="http://www.w3.org/2000/svg">
<path d="M26.2392 41.0864C17.4928 41.0864 13.6054 36.5926 13.6054 33.3827C13.6054 32.7407 13.9295 31.7778 14.5774 31.4568C15.2253 30.8148 15.8731 30.8148 16.521 30.8148C20.0843 30.8148 19.1125 36.2716 26.2392 36.2716C29.8025 36.2716 31.7462 34.0247 31.7462 32.0988C31.7462 30.8148 31.0982 29.5309 28.8306 28.8889L21.0562 26.963C14.9013 25.358 13.9295 21.8272 13.9295 18.9383C13.9295 12.1975 20.0844 9.95062 25.9153 9.95062C31.0983 9.95062 37.5771 12.8395 37.5771 16.6914C37.5771 18.2963 36.2813 19.2593 34.3377 19.2593C31.0983 19.2593 31.7462 14.7654 25.2674 14.7654C22.028 14.7654 20.4083 16.3704 20.4083 18.2963C20.4083 20.2222 22.9997 21.1852 24.9433 21.5062L30.7744 22.7901C36.9293 24.0741 38.5488 27.9259 38.5488 31.1358C38.5488 37.2346 34.3377 41.0864 26.2392 41.0864ZM50.2108 29.8518C50.5348 28.5679 50.5347 26.963 50.5347 25.679C50.5347 18.6173 47.2952 11.8765 41.7882 7.06173C36.2813 2.24691 28.8306 0.641975 21.7039 1.60494C19.7603 0.641975 17.1689 0 14.5774 0C9.39435 0 4.53516 2.88889 1.94364 7.38272C-0.64788 11.8765 -0.64788 17.3333 1.94364 21.8272C0.64788 29.5309 2.91538 37.5556 8.74631 43.3333C14.2533 48.7901 22.3519 51.358 30.1265 50.0741C32.3941 51.358 34.6617 52 37.2532 52C42.4362 52 47.2952 49.1111 49.8868 44.6173C52.4783 39.8025 52.8023 34.3457 50.2108 29.8518Z" fill="white"/>
</svg>
