<svg width="52" height="54" viewBox="0 0 52 54" fill="none" xmlns="http://www.w3.org/2000/svg">
<path d="M48.3106 39.7793C40.2581 35.7301 38.9747 29.4783 38.9175 29.0146C38.8484 28.4529 38.77 28.0113 39.3666 27.4399C39.9419 26.8879 42.4941 25.2469 43.2022 24.7336C44.3727 23.8834 44.8882 23.0347 44.5082 21.9913C44.2425 21.2695 43.5955 20.9976 42.9139 20.9976C42.6989 20.9983 42.4846 21.0233 42.2749 21.0722C40.9888 21.362 39.7399 22.0313 39.0172 22.2121C38.9303 22.2354 38.8411 22.2479 38.7515 22.2494C38.3662 22.2494 38.22 22.0714 38.2572 21.5897C38.3476 20.1296 38.5389 17.2797 38.317 14.6175C38.0128 10.9547 36.8755 9.13987 35.527 7.53482C34.8746 6.75644 31.8455 3.41248 25.9997 3.41248C20.1539 3.41248 17.1288 6.75644 16.4804 7.52516C15.1279 9.13021 13.992 10.945 13.6904 14.6078C13.4685 17.27 13.6678 20.1185 13.7502 21.58C13.7768 22.0382 13.6412 22.2397 13.2559 22.2397C13.1663 22.2381 13.0771 22.2256 12.9902 22.2025C12.2688 22.0217 11.0199 21.3523 9.73388 21.0625C9.52409 21.0136 9.30982 20.9887 9.09483 20.988C8.41061 20.988 7.76625 21.264 7.50053 21.9816C7.12055 23.025 7.63339 23.8738 8.80785 24.7239C9.51599 25.2373 12.0682 26.8768 12.6435 27.4303C13.2387 28.0016 13.1616 28.4432 13.0925 29.0049C13.0354 29.4756 11.7507 35.7274 3.69945 39.7697C3.22781 40.0071 2.42534 40.5094 3.84028 41.3209C6.06167 42.5961 7.54039 42.4595 8.68961 43.2282C9.66479 43.881 9.08819 45.2887 9.79765 45.7965C10.6692 46.4217 13.2453 45.7524 16.5734 46.8937C19.3634 47.8487 21.0587 50.5468 26.0064 50.5468C30.954 50.5468 32.6984 47.8363 35.4393 46.8937C38.7607 45.7524 41.3422 46.4217 42.2151 45.7965C42.9232 45.2887 42.3479 43.881 43.3231 43.2282C44.4723 42.4595 45.9497 42.5961 48.1724 41.3209C49.5847 40.5191 48.7822 40.0167 48.3106 39.7793Z" fill="white"/>
<path d="M51.8141 39.3041C51.4527 38.2828 50.7645 37.7363 49.9807 37.2837C49.8332 37.1939 49.6977 37.1222 49.5821 37.067C49.3483 36.9414 49.1091 36.8199 48.8713 36.6916C46.428 35.346 44.5202 33.6485 43.1969 31.6363C42.8211 31.0698 42.4952 30.4694 42.2231 29.8422C42.1101 29.5068 42.1154 29.3164 42.1965 29.1425C42.2769 29.0085 42.3832 28.8934 42.5087 28.8044C42.9285 28.5159 43.3617 28.2233 43.6553 28.026C44.1787 27.6741 44.5933 27.3953 44.8603 27.1979C45.8634 26.4692 46.5649 25.695 47.0033 24.8297C47.3092 24.2318 47.4876 23.5726 47.5263 22.8967C47.5651 22.2209 47.4633 21.5443 47.2278 20.913C46.5635 19.0968 44.9121 17.9692 42.9113 17.9692C42.4892 17.9688 42.0684 18.0151 41.6558 18.1072C41.5455 18.1321 41.4352 18.1583 41.3276 18.1873C41.3462 16.9452 41.3196 15.6341 41.2133 14.3437C40.836 9.80736 39.3068 7.42946 37.7125 5.53321C36.6916 4.34494 35.489 3.33963 34.1533 2.55773C31.7339 1.12243 28.9904 0.393738 25.9997 0.393738C23.0091 0.393738 20.2789 1.12243 17.8569 2.55773C16.5178 3.33987 15.3128 4.34719 14.2909 5.53873C12.6966 7.43498 11.1674 9.81702 10.7901 14.3493C10.6838 15.6396 10.6573 16.9576 10.6745 18.1928C10.5669 18.1638 10.458 18.1376 10.3477 18.1128C9.93511 18.0206 9.51423 17.9743 9.0922 17.9748C7.09002 17.9748 5.43594 19.1023 4.77431 20.9185C4.53781 21.5501 4.43498 22.2272 4.47281 22.9037C4.51063 23.5803 4.68823 24.2404 4.99352 24.8393C5.43328 25.7047 6.13477 26.4789 7.13785 27.2076C7.40357 27.4008 7.81942 27.6796 8.34288 28.0356C8.62587 28.2261 9.03906 28.5049 9.44427 28.7837C9.58605 28.8789 9.70655 29.0045 9.79768 29.1521C9.88271 29.3329 9.88536 29.5275 9.75915 29.8863C9.49069 30.5004 9.17012 31.0883 8.80124 31.6432C7.5072 33.6098 5.65516 35.277 3.29028 36.6116C2.03743 37.3016 0.735415 37.7625 0.185381 39.3152C-0.229136 40.4869 0.0418942 41.82 1.09546 42.9434C1.48213 43.3627 1.9306 43.7154 2.42404 43.9882C3.45076 44.5743 4.54251 45.028 5.67508 45.3393C5.90881 45.4019 6.13069 45.505 6.3314 45.6443C6.71536 45.9934 6.66089 46.5192 7.1724 47.2893C7.42916 47.6873 7.75542 48.0319 8.13429 48.3051C9.20779 49.0752 10.4141 49.1235 11.6922 49.1745C12.8468 49.2201 14.1554 49.2725 15.6501 49.7845C16.2692 49.9971 16.9122 50.4084 17.6576 50.8886C19.4472 52.0313 21.8971 53.595 25.9971 53.595C30.0971 53.595 32.5643 52.0231 34.3672 50.8762C35.1072 50.4042 35.7462 49.9971 36.3481 49.7901C37.8427 49.2767 39.1514 49.2256 40.3059 49.1801C41.584 49.129 42.7904 49.0807 43.8639 48.3106C44.3126 47.9856 44.6864 47.5614 44.9586 47.0685C45.3266 46.4185 45.3173 45.9644 45.6628 45.647C45.8511 45.5144 46.0594 45.4155 46.2792 45.3544C47.4273 45.0422 48.5339 44.5842 49.5741 43.9909C50.0984 43.6988 50.5703 43.315 50.9691 42.8565L50.9824 42.8399C51.9709 41.7414 52.2193 40.4468 51.8141 39.3041ZM48.1698 41.3384C45.9471 42.6136 44.4697 42.4769 43.3205 43.2457C42.344 43.8984 42.9219 45.3061 42.2124 45.814C41.3409 46.4392 38.7648 45.7699 35.4367 46.9112C32.6918 47.8538 30.9407 50.5643 26.0037 50.5643C21.0667 50.5643 19.3568 47.8593 16.5668 46.9043C13.2453 45.763 10.6639 46.4323 9.79103 45.8071C9.0829 45.2992 9.65818 43.8915 8.683 43.2388C7.53244 42.47 6.05506 42.6067 3.83367 41.3384C2.41873 40.5269 3.22119 40.0245 3.69284 39.7871C11.744 35.738 13.0288 29.4861 13.0859 29.0224C13.155 28.4607 13.2321 28.0191 12.6369 27.4477C12.0616 26.8957 9.50937 25.2548 8.80124 24.7414C7.62943 23.8912 7.11394 23.0425 7.49391 21.9991C7.75963 21.2773 8.40798 21.0054 9.08821 21.0054C9.3032 21.0061 9.51748 21.0311 9.72726 21.08C11.0133 21.3698 12.2622 22.0391 12.9836 22.2199C13.0705 22.2431 13.1597 22.2556 13.2493 22.2572C13.6346 22.2572 13.7701 22.0557 13.7436 21.5975C13.6612 20.136 13.4619 17.2875 13.6838 14.6253C13.988 10.9625 15.124 9.14768 16.4738 7.54263C17.1222 6.77115 20.1686 3.42719 25.9944 3.42719C31.8203 3.42719 34.8747 6.75735 35.523 7.52606C36.8742 9.13111 38.0115 10.9459 38.313 14.6087C38.5349 17.2709 38.3436 20.1208 38.2533 21.5809C38.2227 22.0626 38.3622 22.2406 38.7475 22.2406C38.8372 22.2391 38.9264 22.2266 39.0132 22.2034C39.736 22.0226 40.9848 21.3532 42.2709 21.0634C42.4807 21.0146 42.695 20.9896 42.9099 20.9889C43.5942 20.9889 44.2385 21.2649 44.5042 21.9825C44.8842 23.0259 44.3714 23.8747 43.1982 24.7248C42.4901 25.2382 39.9379 26.8777 39.3626 27.4312C38.7661 28.0025 38.8445 28.4442 38.9136 29.0059C38.9707 29.4765 40.2541 35.7283 48.3066 39.7706C48.7823 40.0176 49.5847 40.52 48.1698 41.3384Z" fill="black"/>
</svg>
