<svg width="52" height="44" viewBox="0 0 52 44" fill="none" xmlns="http://www.w3.org/2000/svg">
<path d="M3.57473 18.9419C17.5333 12.7325 26.8413 8.63892 31.4985 6.6611C44.7959 1.01401 47.559 0.0330512 49.3599 0.000314031C49.756 -0.00646482 50.6417 0.0937629 51.2153 0.569054C51.6998 0.97038 51.833 1.51252 51.8968 1.89302C51.9606 2.27352 52.04 3.14031 51.9769 3.8176C51.2563 11.548 48.1383 30.3078 46.5521 38.966C45.8809 42.6296 44.5592 43.858 43.2798 43.9782C40.4992 44.2395 38.3877 42.102 35.6945 40.2995C31.4803 37.4789 29.0995 35.7231 25.0088 32.9707C20.2814 29.7899 23.346 28.0417 26.0402 25.1846C26.7452 24.4369 38.9967 13.0591 39.2338 12.0269C39.2634 11.8978 39.291 11.4167 39.011 11.1626C38.731 10.9085 38.3178 10.9954 38.0196 11.0645C37.5969 11.1624 30.8646 15.7058 17.8226 24.6945C15.9117 26.0343 14.1808 26.6871 12.63 26.6529C10.9204 26.6152 7.63172 25.6659 5.18694 24.8545C2.18832 23.8593 -0.19493 23.3331 0.0125975 21.6429C0.12069 20.7626 1.30807 19.8622 3.57473 18.9419Z" fill="white"/>
</svg>
