<svg width="46" height="52" viewBox="0 0 46 52" fill="none" xmlns="http://www.w3.org/2000/svg">
<path d="M17.9816 20.4805V18.4578C17.2887 18.3652 16.5842 18.3074 15.8566 18.3074C7.18307 18.296 0.126465 25.3584 0.126465 34.0508C0.126465 39.3795 2.7828 44.0956 6.84815 46.9507C4.22645 44.1419 2.6211 40.362 2.6211 36.2239C2.6211 27.6586 9.48137 20.677 17.9816 20.4805Z" fill="#25F4EE"/>
<path d="M18.3625 43.4136C22.2316 43.4136 25.396 40.3274 25.5347 36.4899L25.5463 2.19424H31.8059C31.6788 1.48914 31.6096 0.760931 31.6096 0.0211487H23.0631L23.0515 34.3168C22.9131 38.1543 19.7484 41.2405 15.8795 41.2405C14.6784 41.2405 13.5465 40.94 12.5417 40.4083C13.8353 42.223 15.9603 43.4136 18.3625 43.4136Z" fill="#25F4EE"/>
<path d="M43.5062 13.8341V11.927C41.1156 11.927 38.8981 11.2218 37.0271 9.99652C38.6901 11.9038 40.9423 13.291 43.5062 13.8341Z" fill="#25F4EE"/>
<path d="M37.027 9.99651C35.2021 7.90439 34.105 5.17646 34.105 2.19424H31.8184C32.4072 5.45389 34.3476 8.2512 37.027 9.99651Z" fill="#FE2C55"/>
<path d="M15.8677 26.8495C11.9063 26.8495 8.68408 30.0745 8.68408 34.0392C8.68408 36.8019 10.2548 39.2061 12.5415 40.4082C11.6869 39.2292 11.1787 37.7844 11.1787 36.2123C11.1787 32.2476 14.401 29.0226 18.3624 29.0226C19.1016 29.0226 19.8176 29.1497 20.4874 29.3578V20.6193C19.7944 20.5267 19.09 20.4689 18.3624 20.4689C18.2353 20.4689 18.1198 20.4804 17.9928 20.4804V27.1847C17.3114 26.9766 16.6069 26.8495 15.8677 26.8495Z" fill="#FE2C55"/>
<path d="M43.5053 13.8341V20.4805C39.0704 20.4805 34.9589 19.0588 31.6095 16.6545V34.0508C31.6095 42.7316 24.553 49.8058 15.8679 49.8058C12.5186 49.8058 9.40029 48.7423 6.8479 46.9507C9.72366 50.0369 13.8236 51.9789 18.3626 51.9789C27.036 51.9789 34.1042 44.9163 34.1042 36.2239V18.8276C37.4534 21.2319 41.5649 22.6536 45.9999 22.6536V14.1001C45.1337 14.1001 44.3022 14.0075 43.5053 13.8341Z" fill="#FE2C55"/>
<path d="M31.6092 34.0508V16.6545C34.9586 19.0588 39.0701 20.4805 43.5051 20.4805V13.8341C40.9411 13.291 38.689 11.9038 37.0259 9.99651C34.3464 8.2512 32.4177 5.45389 31.8055 2.19424H25.5459L25.5343 36.4897C25.3958 40.3273 22.2312 43.4136 18.3623 43.4136C15.96 43.4136 13.8465 42.223 12.5299 40.4198C10.2431 39.2061 8.67242 36.8135 8.67242 34.0508C8.67242 30.0861 11.8947 26.8611 15.8561 26.8611C16.5952 26.8611 17.3113 26.9882 17.9811 27.1963V20.4921C9.48087 20.677 2.62061 27.6586 2.62061 36.2239C2.62061 40.362 4.22596 44.1303 6.84763 46.9507C9.40002 48.7423 12.5183 49.8058 15.8676 49.8058C24.5412 49.8058 31.6092 42.7316 31.6092 34.0508Z" fill="white"/>
</svg>
