<svg width="52" height="43" viewBox="0 0 52 43" fill="none" xmlns="http://www.w3.org/2000/svg">
<path d="M52 4.96154C50.05 5.95385 48.1 6.28462 45.825 6.61538C48.1 5.29231 49.725 3.30769 50.375 0.661538C48.425 1.98461 46.15 2.64615 43.55 3.30769C41.6 1.32308 38.675 0 35.75 0C28.925 0 23.725 6.61538 25.35 13.2308C16.575 12.9 8.775 8.6 3.25 1.98462C0.325 6.94616 1.95 13.2308 6.5 16.5385C4.875 16.5385 3.25 15.8769 1.625 15.2154C1.625 20.1769 5.2 24.8077 10.075 26.1308C8.45 26.4615 6.825 26.7923 5.2 26.4615C6.5 30.7615 10.4 34.0692 15.275 34.0692C11.375 37.0462 5.525 38.7 0 38.0385C4.875 41.0154 10.4 43 16.25 43C36.075 43 47.125 26.1308 46.475 10.5846C48.75 9.26154 50.7 7.27692 52 4.96154Z" fill="black"/>
</svg>
