<svg width="52" height="52" viewBox="0 0 52 52" fill="none" xmlns="http://www.w3.org/2000/svg">
<path fill-rule="evenodd" clip-rule="evenodd" d="M44.2 7.475C39.325 2.6 32.825 0 26 0C11.7 0 0 11.7 0 26C0 30.55 1.30002 35.1 3.57502 39L0 52L13.65 48.425C17.55 50.375 21.775 51.675 26 51.675C40.3 51.675 52 39.975 52 25.675C52 18.85 49.075 12.35 44.2 7.475ZM26 47.45C22.1 47.45 18.2 46.475 14.95 44.525L14.3 44.2L6.17498 46.475L8.45002 38.675L7.79998 37.7C5.52498 34.125 4.54998 30.225 4.54998 26.325C4.54998 14.625 14.3 4.875 26 4.875C31.85 4.875 37.05 7.15 41.275 11.05C45.5 15.275 47.45 20.475 47.45 26.325C47.45 37.7 38.025 47.45 26 47.45ZM37.7 31.2C37.05 30.875 33.8 29.25 33.15 29.25C32.5 28.925 32.175 28.925 31.85 29.575C31.525 30.225 30.225 31.525 29.9 32.175C29.575 32.5 29.25 32.5 28.6 32.5C27.95 32.175 26 31.525 23.4 29.25C21.45 27.625 20.15 25.35 19.825 24.7C19.5 24.05 19.825 23.725 20.15 23.4C20.475 23.075 20.8 22.75 21.125 22.425C21.45 22.1 21.45 21.775 21.775 21.45C22.1 21.125 21.775 20.8 21.775 20.475C21.775 20.15 20.475 16.9 19.825 15.6C19.5 14.625 18.85 14.625 18.525 14.625C18.2 14.625 17.875 14.625 17.225 14.625C16.9 14.625 16.25 14.625 15.6 15.275C14.95 15.925 13.325 17.55 13.325 20.8C13.325 24.05 15.6 26.975 15.925 27.625C16.25 27.95 20.475 34.775 26.975 37.375C32.5 39.65 33.475 39 34.775 39C36.075 39 38.675 37.375 39 36.075C39.65 34.45 39.65 33.15 39.325 33.15C39 31.525 38.35 31.525 37.7 31.2Z" fill="black"/>
</svg>
