<svg width="52" height="37" viewBox="0 0 52 37" fill="none" xmlns="http://www.w3.org/2000/svg">
<path d="M50.7 5.61607C50.05 3.30357 48.425 1.65179 46.15 0.991072C42.25 5.90725e-07 25.675 0 25.675 0C25.675 0 9.42502 5.90725e-07 5.20002 0.991072C2.92502 1.65179 1.29999 3.30357 0.64999 5.61607C-9.9279e-06 9.91072 0 18.5 0 18.5C0 18.5 9.87947e-06 27.0893 0.97501 31.3839C1.62501 33.6964 3.24999 35.3482 5.52499 36.0089C9.42499 37 26 37 26 37C26 37 42.25 37 46.475 36.0089C48.75 35.3482 50.375 33.6964 51.025 31.3839C52 27.0893 52 18.5 52 18.5C52 18.5 52 9.91072 50.7 5.61607ZM20.8 26.4286V10.5714L34.45 18.5L20.8 26.4286Z" fill="white"/>
</svg>
